<svg width="1598" height="614" viewBox="0 0 1598 614" fill="none" xmlns="http://www.w3.org/2000/svg">
<path d="M1485.51 480.862V8.52539H1584.41V480.862H1485.51ZM1534.96 613.866C1517.91 613.866 1503.13 607.898 1490.63 595.962C1478.69 583.457 1472.72 568.679 1472.72 551.627C1472.72 534.575 1478.69 520.081 1490.63 508.145C1503.13 495.64 1517.91 489.388 1534.96 489.388C1552.01 489.388 1566.51 495.64 1578.44 508.145C1590.95 520.081 1597.2 534.575 1597.2 551.627C1597.2 568.679 1590.95 583.457 1578.44 595.962C1566.51 607.898 1552.01 613.866 1534.96 613.866Z" fill="#BE0000"/>
<path d="M1180.17 605.341V126.184C1180.17 107.995 1183.59 91.5117 1190.41 76.7334C1197.23 61.3867 1206.61 48.0294 1218.54 36.6615C1230.48 24.7252 1244.69 15.6309 1261.17 9.3785C1277.65 3.12617 1295.27 0 1314.03 0C1332.79 0 1350.41 3.12617 1366.89 9.3785C1383.38 15.6309 1397.59 24.7252 1409.52 36.6615C1422.03 48.0294 1431.69 61.3867 1438.51 76.7334C1445.33 91.5117 1448.74 107.995 1448.74 126.184C1448.74 143.804 1445.33 160.288 1438.51 175.634C1431.69 190.981 1422.03 204.338 1409.52 215.706C1397.59 227.074 1383.38 235.884 1366.89 242.136C1350.41 248.389 1332.79 251.515 1314.03 251.515C1310.05 251.515 1305.22 251.231 1299.54 250.662C1294.42 250.094 1289.59 249.526 1285.04 248.957C1280.5 247.82 1277.37 246.968 1275.67 246.399C1273.96 245.263 1274.24 244.694 1276.52 244.694L1282.49 209.738V605.341H1180.17ZM1312.33 165.403C1319.15 165.403 1325.4 163.982 1331.08 161.14C1336.77 157.73 1341.03 153.467 1343.87 148.351C1347.28 142.667 1348.99 136.415 1348.99 129.594C1348.99 122.773 1347.28 116.805 1343.87 111.69C1341.03 106.006 1336.77 101.459 1331.08 98.0482C1325.4 94.6378 1319.15 92.9327 1312.33 92.9327C1305.51 92.9327 1299.25 94.6378 1293.57 98.0482C1288.45 101.459 1284.19 106.006 1280.78 111.69C1277.94 116.805 1276.52 122.773 1276.52 129.594C1276.52 136.415 1277.94 142.667 1280.78 148.351C1284.19 153.467 1288.45 157.73 1293.57 161.14C1299.25 163.982 1305.51 165.403 1312.33 165.403Z" fill="#BE0000"/>
<path d="M803.435 605.341V0L1015.73 287.324H933.882L1146.18 0V605.341H1043.87V221.674L1119.75 203.77L974.806 399.866L829.013 203.77L905.746 221.674V605.341H803.435Z" fill="#BE0000"/>
<path d="M634.695 613.866C609.117 613.866 586.097 607.898 565.635 595.962C545.173 584.026 528.974 567.826 517.037 547.364C505.101 526.902 499.133 504.166 499.133 479.157V8.52539H601.444L603.149 481.715C603.149 490.809 605.991 498.482 611.675 504.735C617.927 510.987 625.601 514.113 634.695 514.113C643.789 514.113 651.463 510.987 657.715 504.735C663.967 498.482 667.094 490.809 667.094 481.715V8.52539H769.405V479.157C769.405 504.166 763.437 526.902 751.5 547.364C739.564 567.826 723.365 584.026 702.903 595.962C683.009 607.898 660.273 613.866 634.695 613.866Z" fill="#BE0000"/>
<path d="M0 605.341V8.52539H160.287C204.054 8.52539 244.41 16.1987 281.356 31.5454C318.87 46.3237 351.553 67.3543 379.404 94.6373C407.824 121.92 429.707 153.75 445.054 190.128C460.969 225.937 468.926 264.872 468.926 306.933C468.926 348.994 460.969 388.214 445.054 424.591C429.707 460.4 407.824 491.946 379.404 519.229C351.553 546.512 318.87 567.826 281.356 583.173C244.41 597.951 204.054 605.341 160.287 605.341H0ZM102.311 507.292H160.287C190.412 507.292 217.695 502.461 242.136 492.798C267.146 483.135 288.461 469.494 306.081 451.874C324.27 433.685 338.195 412.37 347.858 387.929C357.521 363.488 362.352 336.489 362.352 306.933C362.352 277.376 357.521 250.378 347.858 225.937C338.195 201.496 324.27 180.465 306.081 162.845C288.461 144.656 267.146 130.73 242.136 121.068C217.695 111.405 190.412 106.574 160.287 106.574H102.311V507.292Z" fill="#BE0000"/>
</svg>
