<svg width="447" height="216" viewBox="0 0 447 216" fill="none" xmlns="http://www.w3.org/2000/svg">
<path d="M227.834 215.5L313.25 106.5H142.419L227.834 215.5Z" fill="white"/>
<rect width="447" height="161" rx="17" fill="white"/>
<path d="M127.543 42.084H147.835L123.371 121H105.784L92.4813 73.7632L79.1783 121H61.4786L37.1274 42.084H57.3073L70.9485 93.9431L85.6043 42.084H99.3582L113.901 93.9431L127.543 42.084ZM189.625 40.7312C212.961 40.7312 229.759 58.2054 229.759 81.542C229.759 104.991 212.961 122.466 189.625 122.466C166.288 122.466 149.49 104.991 149.49 81.542C149.49 58.2054 166.288 40.7312 189.625 40.7312ZM189.625 103.864C203.378 103.864 210.368 92.703 210.368 81.542C210.368 70.381 203.378 59.3328 189.625 59.3328C175.871 59.3328 168.881 70.381 168.881 81.542C168.881 92.703 175.871 103.864 189.625 103.864ZM323.071 42.084H343.364L318.9 121H301.313L288.01 73.7632L274.707 121H257.007L232.656 42.084H252.836L266.477 93.9431L281.133 42.084H294.887L309.43 93.9431L323.071 42.084ZM391.835 78.8363L405.251 81.542C403.673 91.2374 399.276 96.5361 390.933 96.5361C381.576 96.5361 374.925 91.4629 368.16 91.4629C365.229 91.4629 363.989 93.3794 363.425 96.0851L350.123 93.3794C351.701 84.6987 355.647 78.2726 365.455 78.2726C374.248 78.2726 380.787 83.1203 387.1 83.1203C390.37 83.1203 391.497 80.8656 391.835 78.8363Z" fill="#081D63"/>
</svg>
